<?xml version="1.0" encoding="utf-8"?>
<!-- Generator: Adobe Illustrator 28.2.0, SVG Export Plug-In . SVG Version: 6.00 Build 0)  -->
<svg version="1.1" id="Warstwa_1" xmlns="http://www.w3.org/2000/svg" xmlns:xlink="http://www.w3.org/1999/xlink" x="0px" y="0px"
	 width="566.9px" height="83.5px" viewBox="0 0 566.9 83.5" style="enable-background:new 0 0 566.9 83.5;" xml:space="preserve">
<style type="text/css">
	.st0{fill:#0E6EB6;}
	.st1{fill:#DADADA;}
	.st2{fill:#FFFFFF;}
</style>
<g>
	<g>
		<rect x="0" class="st0" width="79.6" height="79.6"/>
		<polygon class="st1" points="79.6,4.2 79.6,79.6 4.2,79.6 4.2,83.5 83.5,83.5 83.5,4.2 		"/>
		<path class="st2" d="M23.6,33.1c4.1,5.2,7.7,10.8,10.7,16.9c1.3,2.7-0.6,5.8-3.6,5.8H19.5c-0.4,0-0.8,0.4-0.8,0.8l0,8.3
			c0,0.4,0.3,0.7,0.7,0.8c2.8,0.3,5.1,2.6,5.4,5.4c0,0.4,0.4,0.7,0.8,0.7h16.2h2.7H46c0.4,0,0.8-0.3,0.8-0.7c0.2-3.1,2-5.7,4.5-7.2
			c0,0,0,0,0,0c0,0,0.1,0,0.1-0.1c0,0,0,0,0,0C54.1,62,56,59,56,55.7c0-2.6-1.1-5-2.9-6.7c0,0,0,0,0,0c-0.5-0.4-0.9-0.7-1.4-1.1
			c0,0,0,0,0,0c-7.8-6.2-14.6-13.6-20-21.9c-0.2-0.3-0.2-0.6-0.1-0.9c0,0,0,0,0,0c0.1-0.4,0.4-0.7,0.8-0.8l13.6-3.6
			c0,0,1-0.3,1.8-0.5c0.5-0.1,1-0.4,1.4-0.7c0.8-0.7,1.8-1.2,2.9-1.5c0.2-0.1,0.5-0.1,0.7-0.2l4.2-1.1c0.2-0.1,0.4,0,0.6,0.1l0,0
			c0.2,0.1,0.3,0.3,0.4,0.5l1.5,5.5l0,0l-3.5,6.1l3.9,6.7l1.9-0.5l-1.9-7.2l0.8-0.8l0,0l5.6-1.5l1.3,0.4l1.9,7.2l1.9-0.5l0-7.7
			l-6.1-3.5l-0.5-1.9l-0.7-2.6c-0.2-0.8-0.1-1.7,0.1-2.5c0.2-0.7,0.3-1.4,0.2-2.2c-0.3-2-1.9-3.6-3.9-3.9c-1.5-0.2-2.8,0.3-3.8,1.1
			c0,0,0,0,0,0c0,0-0.1,0.1-0.1,0.1c-1,0.9-2.2,1.6-3.4,2c-0.3,0.1-0.6,0.2-1,0.3l0,0l-1.3,0.3c-0.2,0.1-0.4,0.1-0.6,0.2
			c-1.1,0.3-2.2,0.3-3.3,0.2c-0.5-0.1-1.1,0-1.6,0.1l-0.2,0l-11.2,3l0,0c-0.2,0-0.3,0.1-0.5,0.1l0,0c-0.7,0.2-1.4,0.2-2.1,0.2
			c-1.6,0-3-0.4-4.3-1.1c0,0,0,0,0,0c0,0,0,0,0,0h0c-0.1-0.1-0.2-0.1-0.3-0.2c0,0,0,0,0,0c-0.6-0.3-1.3-0.6-2-0.8
			c-0.7-0.2-1.5-0.3-2.3-0.3c-2.3,0-4.3,0.8-5.9,2.2c-0.4,0.4-1,0.6-1.5,0.8l-6.5,1.7l0,0l-0.1,0c-0.4,0.1-0.7,0.5-0.6,1L11.7,33
			c0.1,0.4,0.5,0.7,1,0.6l6.8-1.8c0.5-0.1,1-0.2,1.5-0.1l0,0C22.1,31.7,23,32.3,23.6,33.1z M52.9,55.7c0,3.4-2.7,6.1-6.1,6.1
			c-3.4,0-6.1-2.7-6.1-6.1s2.7-6.1,6.1-6.1C50.1,49.5,52.9,52.3,52.9,55.7z M26.1,17.6c0.5,0.3,0.9,0.7,1.3,1.2c0,0,0,0,0,0
			c0.4,0.6,0.8,1.2,1,1.9c0,0,0,0,0,0c0.2,0.6,0.3,1.3,0.3,2c0,1-0.2,1.9-0.6,2.7c-0.2,0.5-0.6,1-0.9,1.4c-1.1,1.3-2.8,2.1-4.6,2.1
			c-1.5,0-2.9-0.6-4-1.5c0,0,0,0,0,0c-0.3-0.3-0.6-0.6-0.8-0.9c0,0,0,0,0,0c-0.8-1-1.3-2.4-1.3-3.8c0-3.4,2.7-6.1,6.1-6.1
			c0.7,0,1.3,0.1,1.9,0.3C25.1,17,25.6,17.3,26.1,17.6z M58.4,9.9c0.4-0.2,0.9-0.4,1.5-0.4c1.7,0,3,1.3,3.1,3c0,0,0,0.1,0,0.1
			c0,1.6-1.3,3-2.9,3.1l0,0c-0.1,0-0.1,0-0.2,0c-1.2,0-2.2-0.7-2.7-1.6c-0.2-0.4-0.4-0.9-0.4-1.4C56.8,11.5,57.5,10.5,58.4,9.9
			L58.4,9.9z"/>
	</g>
	<g>
		<path d="M104.3,13.9c3.5-0.6,8.6-1.1,14-1.1c7.3,0,12.2,1.2,15.6,4.1c2.8,2.3,4.4,5.9,4.4,10.1c0,6.5-4.4,11-9.2,12.7V40
			c3.6,1.4,5.8,4.9,7.1,9.8c1.6,6.3,2.9,12.2,4,14.1h-9.5c-0.8-1.5-2-5.6-3.4-11.9c-1.4-6.6-3.8-8.7-9.1-8.9h-4.7v20.8h-9.2V13.9z
			 M113.5,36.3h5.5c6.2,0,10.1-3.3,10.1-8.3c0-5.6-3.9-8.1-9.9-8.1c-2.9,0-4.8,0.2-5.7,0.5V36.3z"/>
		<path d="M145.3,53.8c3,1.7,7.5,3.2,12.2,3.2c5.9,0,9.2-2.8,9.2-6.9c0-3.8-2.6-6.1-9-8.4c-8.3-3-13.7-7.4-13.7-14.7
			c0-8.3,6.9-14.6,17.9-14.6c5.5,0,9.5,1.2,12.2,2.6l-2.3,7.4c-1.8-1-5.3-2.4-10.1-2.4c-5.9,0-8.4,3.2-8.4,6.1
			c0,3.9,2.9,5.7,9.7,8.3c8.8,3.3,13.1,7.7,13.1,15c0,8.1-6.2,15.2-19.2,15.2c-5.3,0-10.9-1.5-13.7-3.2L145.3,53.8z"/>
		<path class="st0" d="M232.7,38.2c0-4.2-0.1-7.7-0.3-10.9h8.1l0.5,5.5h0.2c1.6-2.9,5.6-6.3,11.6-6.3c6.4,0,13,4.1,13,15.7v21.7
			h-9.2V43.2c0-5.3-2-9.2-7-9.2c-3.7,0-6.2,2.6-7.2,5.4c-0.3,0.8-0.4,2-0.4,3v21.5h-9.3V38.2z"/>
		<path class="st0" d="M307.6,27.3c-0.1,2.5-0.3,5.5-0.3,10.5v20.7c0,7.7-1.6,13.1-5.4,16.6c-3.8,3.4-9.1,4.4-14.1,4.4
			c-4.7,0-9.6-1-12.8-2.9l2-7c2.3,1.4,6.2,2.8,10.7,2.8c6,0,10.5-3.2,10.5-11v-3.2h-0.1c-2.1,3.2-5.9,5.4-10.7,5.4
			c-9.1,0-15.5-7.5-15.5-17.9c0-12,7.8-19.3,16.6-19.3c5.6,0,8.9,2.7,10.6,5.7h0.1l0.4-4.9H307.6z M298.1,42c0-0.8-0.1-1.7-0.3-2.5
			c-1-3.4-3.6-5.9-7.5-5.9c-5.2,0-9,4.5-9,11.9c0,6.2,3.2,11.3,8.9,11.3c3.5,0,6.5-2.3,7.5-5.6c0.2-1,0.4-2.3,0.4-3.3V42z"/>
		<path class="st0" d="M325.3,17.1c0,2.8-2,5-5.3,5c-3.1,0-5.1-2.2-5.1-5c0-2.9,2.1-5,5.2-5C323.2,12.1,325.2,14.2,325.3,17.1z
			 M315.4,63.9V27.3h9.3v36.6H315.4z"/>
		<path class="st0" d="M333.1,38.2c0-4.2-0.1-7.7-0.3-10.9h8.1l0.5,5.5h0.2c1.6-2.9,5.6-6.3,11.6-6.3c6.4,0,13,4.1,13,15.7v21.7H357
			V43.2c0-5.3-2-9.2-7-9.2c-3.7,0-6.2,2.6-7.2,5.4c-0.3,0.8-0.4,2-0.4,3v21.5h-9.3V38.2z"/>
		<path class="st0" d="M381.1,48.2c0.2,6.6,5.4,9.5,11.3,9.5c4.3,0,7.4-0.6,10.1-1.7l1.4,6.4c-3.2,1.3-7.5,2.3-12.8,2.3
			c-11.9,0-18.9-7.3-18.9-18.5c0-10.1,6.2-19.7,17.9-19.7c11.9,0,15.8,9.8,15.8,17.8c0,1.7-0.1,3.1-0.3,3.9H381.1z M397.2,41.7
			c0.1-3.4-1.4-8.9-7.6-8.9c-5.7,0-8.1,5.2-8.5,8.9H397.2z"/>
		<path class="st0" d="M418.4,48.2c0.2,6.6,5.4,9.5,11.3,9.5c4.3,0,7.4-0.6,10.1-1.7l1.4,6.4c-3.2,1.3-7.5,2.3-12.8,2.3
			c-11.9,0-18.9-7.3-18.9-18.5c0-10.1,6.2-19.7,17.9-19.7c11.9,0,15.8,9.8,15.8,17.8c0,1.7-0.1,3.1-0.3,3.9H418.4z M434.5,41.7
			c0.1-3.4-1.4-8.9-7.6-8.9c-5.7,0-8.1,5.2-8.5,8.9H434.5z"/>
		<path class="st0" d="M449.1,39.1c0-5-0.1-8.5-0.3-11.8h8l0.3,7h0.3c1.8-5.2,6.1-7.8,10-7.8c0.9,0,1.4,0.1,2.2,0.2v8.7
			c-0.8-0.2-1.6-0.3-2.7-0.3c-4.4,0-7.4,2.9-8.3,7c-0.1,0.8-0.3,1.8-0.3,2.9v18.9h-9.2V39.1z"/>
		<path class="st0" d="M484.2,17.1c0,2.8-2,5-5.3,5c-3.1,0-5.1-2.2-5.1-5c0-2.9,2.1-5,5.2-5C482.1,12.1,484.1,14.2,484.2,17.1z
			 M474.3,63.9V27.3h9.3v36.6H474.3z"/>
		<path class="st0" d="M492.1,38.2c0-4.2-0.1-7.7-0.3-10.9h8.1l0.5,5.5h0.2c1.6-2.9,5.6-6.3,11.6-6.3c6.4,0,13,4.1,13,15.7v21.7
			h-9.2V43.2c0-5.3-2-9.2-7-9.2c-3.7,0-6.2,2.6-7.2,5.4c-0.3,0.8-0.4,2-0.4,3v21.5h-9.3V38.2z"/>
		<path class="st0" d="M566.9,27.3c-0.2,2.5-0.3,5.5-0.3,10.5v20.7c0,7.7-1.6,13.1-5.4,16.6c-3.8,3.4-9.1,4.4-14.1,4.4
			c-4.7,0-9.6-1-12.8-2.9l2-7c2.3,1.4,6.2,2.8,10.7,2.8c6,0,10.5-3.2,10.5-11v-3.2h-0.1c-2.1,3.2-5.9,5.4-10.7,5.4
			c-9.1,0-15.5-7.5-15.5-17.9c0-12,7.8-19.3,16.6-19.3c5.6,0,8.9,2.7,10.6,5.7h0.1l0.4-4.9H566.9z M557.4,42c0-0.8-0.1-1.7-0.3-2.5
			c-1-3.4-3.6-5.9-7.5-5.9c-5.2,0-9,4.5-9,11.9c0,6.2,3.2,11.3,8.9,11.3c3.5,0,6.5-2.3,7.5-5.6c0.2-1,0.4-2.3,0.4-3.3V42z"/>
		<g>
			<polygon class="st0" points="226.5,56.3 206.3,56.3 206.3,41.4 225.4,41.4 225.4,33.9 206.3,33.9 206.3,20.8 226.5,20.8 
				226.5,13.3 197.1,13.3 197.1,63.9 226.5,63.9 			"/>
		</g>
	</g>
</g>
</svg>
