<?xml version="1.0" encoding="UTF-8" standalone="no"?>
<!-- Generator: Adobe Illustrator 28.2.0, SVG Export Plug-In . SVG Version: 6.00 Build 0)  -->

<svg
   version="1.1"
   id="Warstwa_1"
   x="0px"
   y="0px"
   width="566.90002"
   height="83.5"
   viewBox="0 0 566.9 83.5"
   xml:space="preserve"
   sodipodi:docname="logo.svg"
   inkscape:export-filename="logo-dark.svg"
   inkscape:export-xdpi="96"
   inkscape:export-ydpi="96"
   xmlns:inkscape="http://www.inkscape.org/namespaces/inkscape"
   xmlns:sodipodi="http://sodipodi.sourceforge.net/DTD/sodipodi-0.dtd"
   xmlns="http://www.w3.org/2000/svg"
   xmlns:svg="http://www.w3.org/2000/svg"><defs
   id="defs15" /><sodipodi:namedview
   id="namedview15"
   pagecolor="#ffffff"
   bordercolor="#000000"
   borderopacity="0.25"
   inkscape:showpageshadow="2"
   inkscape:pageopacity="0.0"
   inkscape:pagecheckerboard="0"
   inkscape:deskcolor="#d1d1d1"
   inkscape:zoom="3.1328275"
   inkscape:cx="283.45001"
   inkscape:cy="41.655661"
   inkscape:window-width="1920"
   inkscape:window-height="1017"
   inkscape:window-x="-8"
   inkscape:window-y="-8"
   inkscape:window-maximized="1"
   inkscape:current-layer="Warstwa_1"
   inkscape:export-bgcolor="#ffffff00"><inkscape:page
     x="0"
     y="0"
     width="566.90002"
     height="83.5"
     id="page2"
     margin="0"
     bleed="0" /></sodipodi:namedview>
<style
   type="text/css"
   id="style1">
	.st0{fill:#0E6EB6;}
	.st1{fill:#DADADA;}
	.st2{fill:#FFFFFF;}
</style>
<g
   id="g15">
	<g
   id="g1">
		<rect
   x="0"
   class="st0"
   width="79.599998"
   height="79.599998"
   id="rect1"
   y="0" />
		<polygon
   class="st1"
   points="83.5,83.5 83.5,4.2 79.6,4.2 79.6,79.6 4.2,79.6 4.2,83.5 "
   id="polygon1" />
		<path
   class="st2"
   d="m 23.6,33.1 c 4.1,5.2 7.7,10.8 10.7,16.9 1.3,2.7 -0.6,5.8 -3.6,5.8 H 19.5 c -0.4,0 -0.8,0.4 -0.8,0.8 v 8.3 c 0,0.4 0.3,0.7 0.7,0.8 2.8,0.3 5.1,2.6 5.4,5.4 0,0.4 0.4,0.7 0.8,0.7 h 16.2 2.7 1.5 c 0.4,0 0.8,-0.3 0.8,-0.7 0.2,-3.1 2,-5.7 4.5,-7.2 0,0 0,0 0,0 0,0 0.1,0 0.1,-0.1 0,0 0,0 0,0 C 54.1,62 56,59 56,55.7 c 0,-2.6 -1.1,-5 -2.9,-6.7 0,0 0,0 0,0 -0.5,-0.4 -0.9,-0.7 -1.4,-1.1 0,0 0,0 0,0 -7.8,-6.2 -14.6,-13.6 -20,-21.9 -0.2,-0.3 -0.2,-0.6 -0.1,-0.9 0,0 0,0 0,0 0.1,-0.4 0.4,-0.7 0.8,-0.8 L 46,20.7 c 0,0 1,-0.3 1.8,-0.5 0.5,-0.1 1,-0.4 1.4,-0.7 0.8,-0.7 1.8,-1.2 2.9,-1.5 0.2,-0.1 0.5,-0.1 0.7,-0.2 L 57,16.7 c 0.2,-0.1 0.4,0 0.6,0.1 v 0 c 0.2,0.1 0.3,0.3 0.4,0.5 l 1.5,5.5 v 0 l -3.5,6.1 3.9,6.7 1.9,-0.5 -1.9,-7.2 0.8,-0.8 v 0 l 5.6,-1.5 1.3,0.4 1.9,7.2 1.9,-0.5 V 25 L 65.3,21.5 64.8,19.6 64.1,17 c -0.2,-0.8 -0.1,-1.7 0.1,-2.5 0.2,-0.7 0.3,-1.4 0.2,-2.2 -0.3,-2 -1.9,-3.6 -3.9,-3.9 -1.5,-0.2 -2.8,0.3 -3.8,1.1 0,0 0,0 0,0 0,0 -0.1,0.1 -0.1,0.1 -1,0.9 -2.2,1.6 -3.4,2 -0.3,0.1 -0.6,0.2 -1,0.3 v 0 l -1.3,0.3 c -0.2,0.1 -0.4,0.1 -0.6,0.2 -1.1,0.3 -2.2,0.3 -3.3,0.2 -0.5,-0.1 -1.1,0 -1.6,0.1 h -0.2 l -11.2,3 v 0 c -0.2,0 -0.3,0.1 -0.5,0.1 v 0 C 32.8,16 32.1,16 31.4,16 c -1.6,0 -3,-0.4 -4.3,-1.1 0,0 0,0 0,0 0,0 0,0 0,0 v 0 c -0.1,-0.1 -0.2,-0.1 -0.3,-0.2 0,0 0,0 0,0 -0.6,-0.3 -1.3,-0.6 -2,-0.8 -0.7,-0.2 -1.5,-0.3 -2.3,-0.3 -2.3,0 -4.3,0.8 -5.9,2.2 -0.4,0.4 -1,0.6 -1.5,0.8 l -6.5,1.7 v 0 H 8.5 c -0.4,0.1 -0.7,0.5 -0.6,1 L 11.7,33 c 0.1,0.4 0.5,0.7 1,0.6 l 6.8,-1.8 c 0.5,-0.1 1,-0.2 1.5,-0.1 v 0 c 1.1,0 2,0.6 2.6,1.4 z m 29.3,22.6 c 0,3.4 -2.7,6.1 -6.1,6.1 -3.4,0 -6.1,-2.7 -6.1,-6.1 0,-3.4 2.7,-6.1 6.1,-6.1 3.3,-0.1 6.1,2.7 6.1,6.1 z M 26.1,17.6 c 0.5,0.3 0.9,0.7 1.3,1.2 0,0 0,0 0,0 0.4,0.6 0.8,1.2 1,1.9 0,0 0,0 0,0 0.2,0.6 0.3,1.3 0.3,2 0,1 -0.2,1.9 -0.6,2.7 -0.2,0.5 -0.6,1 -0.9,1.4 -1.1,1.3 -2.8,2.1 -4.6,2.1 -1.5,0 -2.9,-0.6 -4,-1.5 0,0 0,0 0,0 -0.3,-0.3 -0.6,-0.6 -0.8,-0.9 0,0 0,0 0,0 -0.8,-1 -1.3,-2.4 -1.3,-3.8 0,-3.4 2.7,-6.1 6.1,-6.1 0.7,0 1.3,0.1 1.9,0.3 0.6,0.1 1.1,0.4 1.6,0.7 z M 58.4,9.9 c 0.4,-0.2 0.9,-0.4 1.5,-0.4 1.7,0 3,1.3 3.1,3 0,0 0,0.1 0,0.1 0,1.6 -1.3,3 -2.9,3.1 v 0 c -0.1,0 -0.1,0 -0.2,0 -1.2,0 -2.2,-0.7 -2.7,-1.6 -0.2,-0.4 -0.4,-0.9 -0.4,-1.4 0,-1.2 0.7,-2.2 1.6,-2.8 z"
   id="path1" />
	</g>
	<g
   id="g14">
		<path
   d="m 104.3,13.9 c 3.5,-0.6 8.6,-1.1 14,-1.1 7.3,0 12.2,1.2 15.6,4.1 2.8,2.3 4.4,5.9 4.4,10.1 0,6.5 -4.4,11 -9.2,12.7 V 40 c 3.6,1.4 5.8,4.9 7.1,9.8 1.6,6.3 2.9,12.2 4,14.1 h -9.5 c -0.8,-1.5 -2,-5.6 -3.4,-11.9 -1.4,-6.6 -3.8,-8.7 -9.1,-8.9 h -4.7 v 20.8 h -9.2 z m 9.2,22.4 h 5.5 c 6.2,0 10.1,-3.3 10.1,-8.3 0,-5.6 -3.9,-8.1 -9.9,-8.1 -2.9,0 -4.8,0.2 -5.7,0.5 z"
   id="path2" />
		<path
   d="m 145.3,53.8 c 3,1.7 7.5,3.2 12.2,3.2 5.9,0 9.2,-2.8 9.2,-6.9 0,-3.8 -2.6,-6.1 -9,-8.4 -8.3,-3 -13.7,-7.4 -13.7,-14.7 0,-8.3 6.9,-14.6 17.9,-14.6 5.5,0 9.5,1.2 12.2,2.6 l -2.3,7.4 c -1.8,-1 -5.3,-2.4 -10.1,-2.4 -5.9,0 -8.4,3.2 -8.4,6.1 0,3.9 2.9,5.7 9.7,8.3 8.8,3.3 13.1,7.7 13.1,15 0,8.1 -6.2,15.2 -19.2,15.2 -5.3,0 -10.9,-1.5 -13.7,-3.2 z"
   id="path3" />
		<path
   class="st0"
   d="m 232.7,38.2 c 0,-4.2 -0.1,-7.7 -0.3,-10.9 h 8.1 l 0.5,5.5 h 0.2 c 1.6,-2.9 5.6,-6.3 11.6,-6.3 6.4,0 13,4.1 13,15.7 v 21.7 h -9.2 V 43.2 c 0,-5.3 -2,-9.2 -7,-9.2 -3.7,0 -6.2,2.6 -7.2,5.4 -0.3,0.8 -0.4,2 -0.4,3 v 21.5 h -9.3 z"
   id="path4" />
		<path
   class="st0"
   d="m 307.6,27.3 c -0.1,2.5 -0.3,5.5 -0.3,10.5 v 20.7 c 0,7.7 -1.6,13.1 -5.4,16.6 -3.8,3.4 -9.1,4.4 -14.1,4.4 -4.7,0 -9.6,-1 -12.8,-2.9 l 2,-7 c 2.3,1.4 6.2,2.8 10.7,2.8 6,0 10.5,-3.2 10.5,-11 v -3.2 h -0.1 c -2.1,3.2 -5.9,5.4 -10.7,5.4 -9.1,0 -15.5,-7.5 -15.5,-17.9 0,-12 7.8,-19.3 16.6,-19.3 5.6,0 8.9,2.7 10.6,5.7 h 0.1 l 0.4,-4.9 h 8 z M 298.1,42 c 0,-0.8 -0.1,-1.7 -0.3,-2.5 -1,-3.4 -3.6,-5.9 -7.5,-5.9 -5.2,0 -9,4.5 -9,11.9 0,6.2 3.2,11.3 8.9,11.3 3.5,0 6.5,-2.3 7.5,-5.6 0.2,-1 0.4,-2.3 0.4,-3.3 V 42 Z"
   id="path5" />
		<path
   class="st0"
   d="m 325.3,17.1 c 0,2.8 -2,5 -5.3,5 -3.1,0 -5.1,-2.2 -5.1,-5 0,-2.9 2.1,-5 5.2,-5 3.1,0 5.1,2.1 5.2,5 z m -9.9,46.8 V 27.3 h 9.3 v 36.6 z"
   id="path6" />
		<path
   class="st0"
   d="m 333.1,38.2 c 0,-4.2 -0.1,-7.7 -0.3,-10.9 h 8.1 l 0.5,5.5 h 0.2 c 1.6,-2.9 5.6,-6.3 11.6,-6.3 6.4,0 13,4.1 13,15.7 V 63.9 H 357 V 43.2 c 0,-5.3 -2,-9.2 -7,-9.2 -3.7,0 -6.2,2.6 -7.2,5.4 -0.3,0.8 -0.4,2 -0.4,3 v 21.5 h -9.3 z"
   id="path7" />
		<path
   class="st0"
   d="m 381.1,48.2 c 0.2,6.6 5.4,9.5 11.3,9.5 4.3,0 7.4,-0.6 10.1,-1.7 l 1.4,6.4 c -3.2,1.3 -7.5,2.3 -12.8,2.3 -11.9,0 -18.9,-7.3 -18.9,-18.5 0,-10.1 6.2,-19.7 17.9,-19.7 11.9,0 15.8,9.8 15.8,17.8 0,1.7 -0.1,3.1 -0.3,3.9 z m 16.1,-6.5 c 0.1,-3.4 -1.4,-8.9 -7.6,-8.9 -5.7,0 -8.1,5.2 -8.5,8.9 z"
   id="path8" />
		<path
   class="st0"
   d="m 418.4,48.2 c 0.2,6.6 5.4,9.5 11.3,9.5 4.3,0 7.4,-0.6 10.1,-1.7 l 1.4,6.4 c -3.2,1.3 -7.5,2.3 -12.8,2.3 -11.9,0 -18.9,-7.3 -18.9,-18.5 0,-10.1 6.2,-19.7 17.9,-19.7 11.9,0 15.8,9.8 15.8,17.8 0,1.7 -0.1,3.1 -0.3,3.9 z m 16.1,-6.5 c 0.1,-3.4 -1.4,-8.9 -7.6,-8.9 -5.7,0 -8.1,5.2 -8.5,8.9 z"
   id="path9" />
		<path
   class="st0"
   d="m 449.1,39.1 c 0,-5 -0.1,-8.5 -0.3,-11.8 h 8 l 0.3,7 h 0.3 c 1.8,-5.2 6.1,-7.8 10,-7.8 0.9,0 1.4,0.1 2.2,0.2 v 8.7 c -0.8,-0.2 -1.6,-0.3 -2.7,-0.3 -4.4,0 -7.4,2.9 -8.3,7 -0.1,0.8 -0.3,1.8 -0.3,2.9 v 18.9 h -9.2 z"
   id="path10" />
		<path
   class="st0"
   d="m 484.2,17.1 c 0,2.8 -2,5 -5.3,5 -3.1,0 -5.1,-2.2 -5.1,-5 0,-2.9 2.1,-5 5.2,-5 3.1,0 5.1,2.1 5.2,5 z m -9.9,46.8 V 27.3 h 9.3 v 36.6 z"
   id="path11" />
		<path
   class="st0"
   d="m 492.1,38.2 c 0,-4.2 -0.1,-7.7 -0.3,-10.9 h 8.1 l 0.5,5.5 h 0.2 c 1.6,-2.9 5.6,-6.3 11.6,-6.3 6.4,0 13,4.1 13,15.7 V 63.9 H 516 V 43.2 c 0,-5.3 -2,-9.2 -7,-9.2 -3.7,0 -6.2,2.6 -7.2,5.4 -0.3,0.8 -0.4,2 -0.4,3 v 21.5 h -9.3 z"
   id="path12" />
		<path
   class="st0"
   d="m 566.9,27.3 c -0.2,2.5 -0.3,5.5 -0.3,10.5 v 20.7 c 0,7.7 -1.6,13.1 -5.4,16.6 -3.8,3.4 -9.1,4.4 -14.1,4.4 -4.7,0 -9.6,-1 -12.8,-2.9 l 2,-7 c 2.3,1.4 6.2,2.8 10.7,2.8 6,0 10.5,-3.2 10.5,-11 v -3.2 h -0.1 c -2.1,3.2 -5.9,5.4 -10.7,5.4 -9.1,0 -15.5,-7.5 -15.5,-17.9 0,-12 7.8,-19.3 16.6,-19.3 5.6,0 8.9,2.7 10.6,5.7 h 0.1 l 0.4,-4.9 h 8 z M 557.4,42 c 0,-0.8 -0.1,-1.7 -0.3,-2.5 -1,-3.4 -3.6,-5.9 -7.5,-5.9 -5.2,0 -9,4.5 -9,11.9 0,6.2 3.2,11.3 8.9,11.3 3.5,0 6.5,-2.3 7.5,-5.6 0.2,-1 0.4,-2.3 0.4,-3.3 z"
   id="path13" />
		<g
   id="g13">
			<polygon
   class="st0"
   points="225.4,33.9 206.3,33.9 206.3,20.8 226.5,20.8 226.5,13.3 197.1,13.3 197.1,63.9 226.5,63.9 226.5,56.3 206.3,56.3 206.3,41.4 225.4,41.4 "
   id="polygon13" />
		</g>
	</g>
</g>
<path
   style="fill:#ffffff;stroke-width:0.3192"
   d="m 152.25862,64.128647 c -0.35112,-0.08442 -1.64388,-0.385534 -2.8728,-0.669146 -2.33714,-0.539373 -5.90521,-1.938996 -5.90521,-2.3164 0,-0.120747 0.20258,-0.927903 0.45018,-1.79368 0.2476,-0.865774 0.68004,-2.391491 0.96098,-3.39048 l 0.51079,-1.816347 1.83203,0.811376 c 4.43876,1.96585 11.02509,2.689165 14.53464,1.596197 3.20115,-0.996927 4.99899,-3.311459 4.99899,-6.435694 0,-3.85085 -2.41564,-6.122406 -9.23861,-8.687558 -6.32527,-2.378037 -11.03433,-6.081368 -12.40147,-9.752861 -2.50011,-6.714084 0.47819,-13.811791 7.13048,-16.992928 5.38993,-2.577476 13.25889,-2.764007 19.47123,-0.461561 1.05336,0.390402 1.9653,0.752409 2.02652,0.804461 0.10964,0.0932 -1.83239,6.579633 -2.03272,6.789375 -0.0566,0.05927 -1.2275,-0.292837 -2.60197,-0.782466 -2.25176,-0.802147 -2.92543,-0.891772 -6.80824,-0.905771 -3.85029,-0.01388 -4.44941,0.05946 -5.62566,0.688669 -3.78546,2.024943 -4.69958,6.412584 -1.93715,9.297979 1.41334,1.476262 2.929,2.312762 7.79838,4.303971 5.07684,2.076047 7.27497,3.356435 9.49805,5.532512 6.34292,6.208817 4.62023,17.197009 -3.41019,21.751986 -3.20752,1.819357 -5.65006,2.37308 -10.95184,2.48278 -2.6334,0.05449 -5.07529,0.03001 -5.42641,-0.05441 z"
   id="path15" /><path
   style="fill:#ffffff;fill-opacity:1;stroke-width:0.3192"
   d="M 104.53815,38.825472 V 13.97045 l 3.59101,-0.441157 c 2.08612,-0.256282 6.26635,-0.427135 9.97501,-0.407696 5.43627,0.02849 6.75429,0.133883 8.87823,0.709905 5.05684,1.37144 8.66384,4.195248 10.16134,7.954996 0.5953,1.494633 0.73248,2.456268 0.74073,5.192653 0.01,3.168127 -0.0499,3.480179 -1.0492,5.510117 -1.30508,2.650998 -3.66811,5.038551 -6.14887,6.212692 -1.02133,0.483394 -1.86417,0.983708 -1.87299,1.11181 -0.009,0.128103 0.53243,0.512711 1.20275,0.854686 1.67421,0.854116 3.46212,2.921031 4.56453,5.276818 0.50815,1.085908 1.69604,4.981915 2.63975,8.657796 0.9437,3.67588 1.94095,7.22207 2.21611,7.880421 l 0.50028,1.197002 h -4.58572 -4.58572 l -0.49236,-1.356602 c -0.70083,-1.930968 -1.61617,-5.251885 -2.61743,-9.496214 -1.9115,-8.102779 -3.47035,-9.572568 -10.42923,-9.833348 l -3.7506,-0.140552 v 10.413359 10.413357 h -4.46881 -4.46881 z m 17.08557,-2.624776 c 3.47059,-0.641574 5.9851,-2.417717 7.06244,-4.988598 0.63747,-1.521217 0.54079,-5.402197 -0.17376,-6.975443 -0.77855,-1.714154 -2.6545,-3.22556 -4.82222,-3.885137 -1.82932,-0.55661 -7.62175,-0.741041 -9.33661,-0.297278 l -0.8778,0.227152 v 8.133531 8.13353 h 3.13338 c 1.72335,0 3.97991,-0.156491 5.01457,-0.347757 z"
   id="path16" /></svg>
